<?xml version="1.0" standalone="no"?>
<!DOCTYPE svg PUBLIC "-//W3C//DTD SVG 20010904//EN"
 "http://www.w3.org/TR/2001/REC-SVG-20010904/DTD/svg10.dtd">
<svg version="1.0" xmlns="http://www.w3.org/2000/svg"
 width="256.000000pt" height="256.000000pt" viewBox="0 0 256.000000 256.000000"
 preserveAspectRatio="xMidYMid meet">
<metadata>
Created by potrace 1.11, written by Peter Selinger 2001-2013
</metadata>
<g transform="translate(0.000000,256.000000) scale(0.100000,-0.100000)"
fill="#000000" stroke="none">
<path d="M1206 2307 c-70 -116 -139 -228 -151 -247 -13 -19 -104 -168 -202
-330 -99 -162 -211 -346 -249 -408 -38 -62 -77 -127 -87 -143 -9 -17 -73 -121
-141 -232 -67 -111 -128 -212 -135 -224 l-11 -22 243 -3 c158 -2 244 1 244 7
0 13 361 1094 374 1120 5 11 11 29 13 40 3 11 32 101 66 200 34 99 63 187 66
195 2 8 11 37 21 64 16 47 17 48 26 25 81 -203 261 -382 450 -447 31 -11 57
-19 57 -16 0 2 -24 16 -52 30 -218 110 -370 318 -396 543 l-7 61 -129 -213z"/>
<path d="M1005 1527 c-147 -441 -270 -808 -273 -814 -3 -10 40 -13 196 -13
l200 0 -4 -22 -5 -23 10 23 10 22 355 0 354 0 3 23 c2 12 4 255 3 540 0 284 1
517 3 517 2 0 8 -10 13 -22 8 -20 9 -21 9 -4 1 20 1 20 16 0 8 -10 15 -14 15
-8 0 15 -25 36 -33 27 -4 -3 -7 1 -7 11 0 10 -5 14 -12 10 -7 -4 -8 -3 -4 5 6
9 11 9 24 -1 12 -10 12 -5 -4 22 -21 38 -34 51 -45 44 -4 -2 -38 0 -76 6 -155
22 -294 85 -398 181 -37 34 -45 38 -46 23 -2 -24 -6 -52 -12 -89 -3 -16 -8
-59 -12 -95 -3 -36 -8 -76 -10 -90 -3 -14 -7 -50 -10 -80 -3 -30 -8 -69 -11
-86 -5 -31 -6 -44 -19 -159 -3 -33 -8 -71 -10 -85 -7 -44 -14 -94 -20 -151 -3
-31 -8 -67 -10 -80 -3 -13 -7 -49 -10 -79 -2 -30 -6 -64 -9 -75 -2 -11 -7 -49
-11 -85 -9 -88 -15 -141 -20 -165 -2 -11 -4 -28 -4 -38 -1 -10 -5 -16 -9 -13
-5 3 -3 45 4 93 7 48 16 113 18 143 3 30 10 89 15 130 6 41 13 100 16 130 3
30 8 62 10 70 2 8 6 44 10 80 3 36 7 75 9 85 7 38 16 111 21 170 3 33 8 71 10
85 3 14 7 45 10 70 3 25 10 79 15 120 5 41 12 100 15 130 7 69 15 110 21 110
3 0 17 -14 31 -31 35 -41 122 -105 191 -139 50 -24 81 -35 167 -56 11 -3 -9 9
-45 27 -137 67 -271 203 -347 351 l-29 57 -269 -802z"/>
<path d="M1881 1714 c0 -11 3 -14 6 -6 3 7 2 16 -1 19 -3 4 -6 -2 -5 -13z"/>
<path d="M1910 1727 c0 -8 60 -111 60 -104 0 11 -49 107 -55 107 -3 0 -5 -2
-5 -3z"/>
<path d="M1891 1680 c0 -8 4 -24 9 -35 5 -13 9 -14 9 -5 0 8 -4 24 -9 35 -5
13 -9 14 -9 5z"/>
<path d="M1988 1581 c9 -16 18 -28 20 -27 5 6 -21 56 -29 56 -5 0 0 -13 9 -29z"/>
<path d="M1912 1595 c0 -5 6 -26 13 -45 7 -19 14 -28 14 -20 0 8 -6 29 -14 45
-7 17 -13 26 -13 20z"/>
<path d="M2085 1395 c42 -82 82 -154 87 -160 6 -5 -24 58 -67 140 -42 83 -82
155 -87 160 -6 6 24 -57 67 -140z"/>
<path d="M1935 1500 c-3 -5 -1 -10 4 -10 6 0 11 5 11 10 0 6 -2 10 -4 10 -3 0
-8 -4 -11 -10z"/>
<path d="M1952 1449 c6 -16 12 -28 14 -26 5 5 -13 57 -20 57 -3 0 0 -14 6 -31z"/>
<path d="M1971 1374 c6 -22 15 -43 19 -48 5 -5 3 10 -3 32 -16 53 -29 66 -16
16z"/>
<path d="M1996 1285 c11 -48 25 -76 18 -35 -4 19 -10 42 -15 50 -6 10 -7 5 -3
-15z"/>
<path d="M2180 1214 c0 -13 18 -39 24 -34 2 3 -2 14 -10 24 -8 11 -14 16 -14
10z"/>
<path d="M2025 1170 c4 -14 12 -29 17 -35 7 -7 8 -2 3 15 -4 14 -12 30 -17 35
-7 7 -8 2 -3 -15z"/>
<path d="M2210 1167 c0 -12 102 -209 106 -205 2 2 -21 51 -51 108 -30 58 -54
101 -55 97z"/>
<path d="M2044 1105 c4 -11 10 -32 13 -48 3 -15 9 -30 14 -33 10 -6 -16 85
-27 94 -4 4 -4 -2 0 -13z"/>
<path d="M2076 985 c4 -16 11 -37 15 -45 6 -10 7 -4 3 15 -4 17 -11 37 -15 45
-6 10 -7 4 -3 -15z"/>
<path d="M2350 889 c38 -74 51 -57 -127 -161 -67 -40 -121 -73 -119 -75 3 -3
270 151 285 164 6 4 -51 123 -62 130 -4 3 6 -23 23 -58z"/>
<path d="M2101 890 c6 -19 16 -39 21 -45 5 -5 3 6 -3 25 -6 19 -16 39 -21 45
-5 5 -3 -6 3 -25z"/>
<path d="M2125 810 c3 -14 8 -35 11 -47 5 -18 1 -25 -17 -32 -13 -5 -17 -10
-9 -10 8 0 22 3 29 8 13 8 13 16 -2 58 -9 26 -15 37 -12 23z"/>
<path d="M2025 710 c-14 -7 -8 -8 20 -3 22 3 42 7 44 9 9 8 -45 2 -64 -6z"/>
<path d="M1888 676 c-42 -11 -80 -24 -83 -28 -4 -4 34 4 86 18 87 23 121 36
88 33 -8 -1 -49 -11 -91 -23z"/>
<path d="M694 644 c-6 -19 -8 -34 -3 -34 8 0 24 59 17 65 -2 2 -8 -12 -14 -31z"/>
<path d="M1121 634 c0 -11 3 -14 6 -6 3 7 2 16 -1 19 -3 4 -6 -2 -5 -13z"/>
<path d="M1735 635 c-22 -8 -31 -14 -20 -14 11 0 34 6 50 14 38 17 22 17 -30
0z"/>
<path d="M2052 626 c-46 -33 -53 -43 -14 -20 19 10 38 25 44 32 15 17 8 14
-30 -12z"/>
<path d="M1645 610 c-13 -5 -14 -9 -5 -9 8 0 24 4 35 9 13 5 14 9 5 9 -8 0
-24 -4 -35 -9z"/>
<path d="M1110 600 c0 -5 5 -10 10 -10 6 0 10 5 10 10 0 6 -4 10 -10 10 -5 0
-10 -4 -10 -10z"/>
<path d="M1598 593 c7 -3 16 -2 19 1 4 3 -2 6 -13 5 -11 0 -14 -3 -6 -6z"/>
<path d="M1525 580 c-13 -6 -15 -9 -5 -9 8 0 22 4 30 9 18 12 2 12 -25 0z"/>
<path d="M1910 544 c-41 -25 -79 -50 -85 -56 -11 -12 -16 -15 100 54 44 27 76
48 70 48 -5 0 -44 -21 -85 -46z"/>
<path d="M666 565 c-3 -9 -6 -22 -5 -28 0 -7 5 -1 10 12 5 13 8 26 5 28 -2 2
-6 -3 -10 -12z"/>
<path d="M1111 565 c-1 -11 -4 -31 -6 -45 l-6 -25 11 25 c6 13 9 33 7 45 -4
19 -4 19 -6 0z"/>
<path d="M1478 563 c7 -3 16 -2 19 1 4 3 -2 6 -13 5 -11 0 -14 -3 -6 -6z"/>
<path d="M1415 550 c-13 -5 -14 -9 -5 -9 8 0 24 4 35 9 13 5 14 9 5 9 -8 0
-24 -4 -35 -9z"/>
<path d="M1321 529 c-18 -6 -31 -12 -29 -14 5 -5 78 14 78 20 0 6 -8 5 -49 -6z"/>
<path d="M641 489 c-6 -18 -9 -34 -7 -36 2 -2 9 10 15 28 6 18 9 34 7 36 -2 2
-9 -10 -15 -28z"/>
<path d="M1235 505 c-40 -14 -40 -14 -5 -9 19 4 39 10 45 15 11 11 10 11 -40
-6z"/>
<path d="M1093 475 c-7 -8 -8 -15 -3 -17 6 -2 5 -29 -1 -71 -6 -38 -9 -71 -6
-73 3 -3 10 34 17 81 7 47 11 88 9 90 -2 1 -9 -3 -16 -10z"/>
<path d="M1168 483 c7 -3 16 -2 19 1 4 3 -2 6 -13 5 -11 0 -14 -3 -6 -6z"/>
<path d="M1128 473 c7 -3 16 -2 19 1 4 3 -2 6 -13 5 -11 0 -14 -3 -6 -6z"/>
<path d="M1770 459 c-17 -13 -18 -17 -5 -10 33 17 51 31 40 31 -5 0 -21 -10
-35 -21z"/>
<path d="M1010 445 c-32 -18 -25 -18 25 0 22 8 31 14 20 14 -11 0 -31 -6 -45
-14z"/>
<path d="M612 403 c-15 -48 -8 -55 8 -8 7 20 10 38 8 41 -3 2 -10 -13 -16 -33z"/>
<path d="M936 429 c-22 -5 -42 -12 -45 -15 -10 -9 73 8 84 17 5 5 7 9 5 8 -3
-1 -23 -5 -44 -10z"/>
<path d="M1690 415 c-19 -14 -31 -25 -28 -25 9 0 78 41 78 46 0 9 -17 2 -50
-21z"/>
<path d="M858 403 c7 -3 16 -2 19 1 4 3 -2 6 -13 5 -11 0 -14 -3 -6 -6z"/>
<path d="M795 390 c-13 -5 -14 -9 -5 -9 8 0 24 4 35 9 13 5 14 9 5 9 -8 0 -24
-4 -35 -9z"/>
<path d="M701 369 c-18 -6 -31 -12 -29 -14 2 -2 26 2 53 10 28 7 41 13 30 13
-11 0 -35 -4 -54 -9z"/>
<path d="M1482 292 c-78 -47 -141 -87 -139 -89 2 -2 64 33 138 77 73 44 138
82 144 84 5 2 8 5 5 8 -3 3 -69 -33 -148 -80z"/>
<path d="M635 351 c-11 -5 -26 -6 -32 -4 -7 3 -13 0 -13 -5 0 -12 50 -5 65 9
11 11 7 11 -20 0z"/>
<path d="M1077 293 c-10 -9 -9 -23 1 -23 5 0 9 7 9 15 0 17 -1 18 -10 8z"/>
<path d="M1072 235 c0 -16 2 -22 5 -12 2 9 2 23 0 30 -3 6 -5 -1 -5 -18z"/>
<path d="M1067 193 c-7 -12 -20 -109 -14 -103 6 6 26 110 21 110 -1 0 -5 -3
-7 -7z"/>
<path d="M1250 154 c-41 -25 -105 -62 -143 -82 -37 -19 -65 -37 -63 -40 3 -2
31 11 63 29 148 83 239 140 221 139 -2 0 -37 -21 -78 -46z"/>
</g>
</svg>
